<svg width="25" height="25" viewBox="0 0 25 25" fill="none" xmlns="http://www.w3.org/2000/svg">
<path d="M12.4996 0C7.71594 0 3.8242 3.89231 3.8242 8.67611C3.8242 13.2809 11.6956 24.0394 12.0307 24.495L12.3435 24.9207C12.3801 24.9707 12.4383 25 12.4996 25C12.5618 25 12.6197 24.9707 12.6567 24.9207L12.9693 24.495C13.3046 24.0394 21.1758 13.2809 21.1758 8.67611C21.1758 3.89231 17.2834 0 12.4996 0ZM12.4996 5.56835C14.2136 5.56835 15.6074 6.96217 15.6074 8.67611C15.6074 10.3892 14.2136 11.7839 12.4996 11.7839C10.7866 11.7839 9.39185 10.3892 9.39185 8.67611C9.39185 6.96217 10.7866 5.56835 12.4996 5.56835Z" fill="#3FABE8"/>
</svg>
