<svg width="30" height="30" viewBox="0 0 30 30" fill="none" xmlns="http://www.w3.org/2000/svg">
<path d="M26.2562 14.0625H3.75623V24.375H26.2562V14.0625Z" fill="url(#paint0_linear_258_20)"/>
<path d="M22.5063 19.8125H14.0813V24.375H22.5063V19.8125Z" fill="url(#paint1_linear_258_20)"/>
<path d="M25.7813 9.375H4.21877L2.05627 12.825C1.93954 13.0131 1.87484 13.2287 1.86877 13.45V14.5187C1.86877 14.6414 1.9175 14.7591 2.00424 14.8458C2.09097 14.9325 2.20861 14.9812 2.33127 14.9812H27.6688C27.7914 14.9812 27.9091 14.9325 27.9958 14.8458C28.0825 14.7591 28.1313 14.6414 28.1313 14.5187V13.4687C28.1252 13.2475 28.0605 13.0318 27.9438 12.8437L25.7813 9.375Z" fill="url(#paint2_linear_258_20)"/>
<path d="M15 15H27.6688C27.7914 15 27.9091 14.9513 27.9958 14.8645C28.0825 14.7778 28.1312 14.6602 28.1312 14.5375V13.4687C28.1252 13.2475 28.0605 13.0318 27.9437 12.8437L25.7812 9.375H4.21875L13.85 11.0563C14.1707 11.1132 14.4613 11.2807 14.6714 11.5296C14.8814 11.7785 14.9977 12.0931 15 12.4188V15Z" fill="url(#paint3_linear_258_20)"/>
<path d="M5.4125 5.625H24.5875C24.9041 5.625 25.2077 5.75077 25.4316 5.97464C25.6555 6.19851 25.7812 6.50215 25.7812 6.81875V9.375H4.21875V6.81875C4.21875 6.50215 4.34452 6.19851 4.56839 5.97464C4.79226 5.75077 5.0959 5.625 5.4125 5.625Z" fill="url(#paint4_linear_258_20)"/>
<path d="M1.87494 13.4687V14.5374C1.87494 14.6601 1.92367 14.7777 2.0104 14.8644C2.09714 14.9512 2.21478 14.9999 2.33744 14.9999H27.6687C27.7914 14.9999 27.909 14.9512 27.9957 14.8644C28.0825 14.7777 28.1312 14.6601 28.1312 14.5374V13.4687C28.1317 13.3502 28.1149 13.2322 28.0812 13.1187H1.91869C1.88764 13.2327 1.87291 13.3505 1.87494 13.4687Z" fill="url(#paint5_linear_258_20)"/>
<path d="M7.03748 7.9624C7.29636 7.9624 7.50623 7.75254 7.50623 7.49365C7.50623 7.23477 7.29636 7.0249 7.03748 7.0249C6.77859 7.0249 6.56873 7.23477 6.56873 7.49365C6.56873 7.75254 6.77859 7.9624 7.03748 7.9624Z" fill="url(#paint6_linear_258_20)"/>
<path d="M9.84998 7.9624C10.1089 7.9624 10.3187 7.75254 10.3187 7.49365C10.3187 7.23477 10.1089 7.0249 9.84998 7.0249C9.59109 7.0249 9.38123 7.23477 9.38123 7.49365C9.38123 7.75254 9.59109 7.9624 9.84998 7.9624Z" fill="url(#paint7_linear_258_20)"/>
<path d="M12.6625 7.9624C12.9214 7.9624 13.1312 7.75254 13.1312 7.49365C13.1312 7.23477 12.9214 7.0249 12.6625 7.0249C12.4036 7.0249 12.1937 7.23477 12.1937 7.49365C12.1937 7.75254 12.4036 7.9624 12.6625 7.9624Z" fill="url(#paint8_linear_258_20)"/>
<path d="M8.75002 17.8125H10.9C11.2315 17.8125 11.5495 17.9442 11.7839 18.1786C12.0183 18.413 12.15 18.731 12.15 19.0625V24.375H7.50002V19.0813C7.49753 18.9155 7.52803 18.751 7.58973 18.5971C7.65144 18.4433 7.74312 18.3033 7.85944 18.1852C7.97576 18.0672 8.1144 17.9734 8.26729 17.9094C8.42019 17.8454 8.58428 17.8125 8.75002 17.8125Z" fill="url(#paint9_linear_258_20)"/>
<path d="M12.1375 23.3999H7.48755V24.3749H12.1375V23.3999Z" fill="url(#paint10_linear_258_20)"/>
<path d="M20.625 21.5625H15.9375C15.4402 21.5625 14.9633 21.365 14.6117 21.0133C14.26 20.6617 14.0625 20.1848 14.0625 19.6875C14.0625 19.1902 14.26 18.7133 14.6117 18.3617C14.9633 18.01 15.4402 17.8125 15.9375 17.8125H20.625C21.1223 17.8125 21.5992 18.01 21.9508 18.3617C22.3025 18.7133 22.5 19.1902 22.5 19.6875C22.5 20.1848 22.3025 20.6617 21.9508 21.0133C21.5992 21.365 21.1223 21.5625 20.625 21.5625Z" fill="url(#paint11_linear_258_20)"/>
<path d="M15.9438 18.9437H20.625C21.0219 18.9449 21.4083 19.072 21.7284 19.3067C22.0485 19.5415 22.2858 19.8718 22.4062 20.25C22.466 20.0684 22.4976 19.8787 22.5 19.6875C22.5 19.1902 22.3025 18.7133 21.9508 18.3617C21.5992 18.01 21.1223 17.8125 20.625 17.8125H15.9375C15.4402 17.8125 14.9633 18.01 14.6117 18.3617C14.26 18.7133 14.0625 19.1902 14.0625 19.6875C14.0642 19.8808 14.0959 20.0726 14.1562 20.2562C14.2759 19.8758 14.5137 19.5434 14.8352 19.3074C15.1566 19.0714 15.545 18.944 15.9438 18.9437Z" fill="url(#paint12_linear_258_20)"/>
<path d="M26.2562 15H3.75623V16.3H26.2562V15Z" fill="url(#paint13_linear_258_20)"/>
<defs>
<linearGradient id="paint0_linear_258_20" x1="15.0062" y1="22.9687" x2="15.0062" y2="3.35625" gradientUnits="userSpaceOnUse">
<stop stop-color="#273A9B"/>
<stop offset="0.56" stop-color="#202F65"/>
<stop offset="1" stop-color="#021E2F"/>
</linearGradient>
<linearGradient id="paint1_linear_258_20" x1="18.2938" y1="26.25" x2="18.2938" y2="15.9" gradientUnits="userSpaceOnUse">
<stop stop-color="#273A9B"/>
<stop offset="0.56" stop-color="#202F65"/>
<stop offset="1" stop-color="#021E2F"/>
</linearGradient>
<linearGradient id="paint2_linear_258_20" x1="15" y1="19.7375" x2="15" y2="5.3375" gradientUnits="userSpaceOnUse">
<stop stop-color="#27E9DE"/>
<stop offset="0.52" stop-color="#03A4EC"/>
<stop offset="1" stop-color="#2547A8"/>
</linearGradient>
<linearGradient id="paint3_linear_258_20" x1="16.175" y1="19.95" x2="16.175" y2="8.01875" gradientUnits="userSpaceOnUse">
<stop stop-color="#27E9DE"/>
<stop offset="0.52" stop-color="#03A4EC"/>
<stop offset="1" stop-color="#2547A8"/>
</linearGradient>
<linearGradient id="paint4_linear_258_20" x1="6.1448e-08" y1="-2.58125" x2="0.625" y2="9.90625" gradientUnits="userSpaceOnUse">
<stop stop-color="#27E9DE"/>
<stop offset="0.52" stop-color="#03A4EC"/>
<stop offset="1" stop-color="#2547A8"/>
</linearGradient>
<linearGradient id="paint5_linear_258_20" x1="-5.88617e-05" y1="35.0374" x2="0.624941" y2="8.14365" gradientUnits="userSpaceOnUse">
<stop stop-color="#27E9DE"/>
<stop offset="0.52" stop-color="#03A4EC"/>
<stop offset="1" stop-color="#2547A8"/>
</linearGradient>
<linearGradient id="paint6_linear_258_20" x1="7.03748" y1="4.45615" x2="7.03748" y2="-3.2876" gradientUnits="userSpaceOnUse">
<stop stop-color="white"/>
<stop offset="0.52" stop-color="#CCE2E6"/>
<stop offset="1" stop-color="#8FA1BB"/>
</linearGradient>
<linearGradient id="paint7_linear_258_20" x1="9.84998" y1="4.45615" x2="9.84998" y2="-3.2876" gradientUnits="userSpaceOnUse">
<stop stop-color="white"/>
<stop offset="0.52" stop-color="#CCE2E6"/>
<stop offset="1" stop-color="#8FA1BB"/>
</linearGradient>
<linearGradient id="paint8_linear_258_20" x1="12.6625" y1="4.45615" x2="12.6625" y2="-3.2876" gradientUnits="userSpaceOnUse">
<stop stop-color="white"/>
<stop offset="0.52" stop-color="#CCE2E6"/>
<stop offset="1" stop-color="#8FA1BB"/>
</linearGradient>
<linearGradient id="paint9_linear_258_20" x1="10" y1="30.5" x2="9.85002" y2="10.3312" gradientUnits="userSpaceOnUse">
<stop stop-color="white"/>
<stop offset="0.5" stop-color="#3FABE8"/>
<stop offset="1" stop-color="#3FABE8"/>
</linearGradient>
<linearGradient id="paint10_linear_258_20" x1="9.80946" y1="25.4312" x2="9.80946" y2="22.2874" gradientUnits="userSpaceOnUse">
<stop stop-color="#3FABE8"/>
<stop offset="0.5" stop-color="white"/>
<stop offset="1" stop-color="white"/>
</linearGradient>
<linearGradient id="paint11_linear_258_20" x1="18.2875" y1="30" x2="18.2875" y2="11.2187" gradientUnits="userSpaceOnUse">
<stop stop-color="#27E9DE"/>
<stop offset="0.52" stop-color="#03A4EC"/>
<stop offset="1" stop-color="#2547A8"/>
</linearGradient>
<linearGradient id="paint12_linear_258_20" x1="18.2875" y1="25" x2="18.2875" y2="16.5938" gradientUnits="userSpaceOnUse">
<stop stop-color="#27E9DE"/>
<stop offset="0.52" stop-color="#03A4EC"/>
<stop offset="1" stop-color="#2547A8"/>
</linearGradient>
<linearGradient id="paint13_linear_258_20" x1="15.0062" y1="21.4562" x2="15.0062" y2="11.8563" gradientUnits="userSpaceOnUse">
<stop stop-color="#273A9B"/>
<stop offset="0.56" stop-color="#202F65"/>
<stop offset="1" stop-color="#021E2F"/>
</linearGradient>
</defs>
</svg>
